# Blender 4.0.2
# www.blender.org
mtllib box_02.mtl
o box_02.obj
v -0.006826 -0.000000 -0.034471
v 0.006826 -0.000000 -0.034471
v 0.006826 -0.000000 -0.051195
v -0.006826 -0.000000 -0.051195
v -0.006826 0.013265 -0.034471
v 0.006826 0.013265 -0.034471
v 0.006826 0.013265 -0.051195
v -0.006826 0.013265 -0.051195
v -0.006485 0.013265 -0.034813
v -0.006485 0.013265 -0.050854
v 0.006485 0.013265 -0.050854
v 0.006485 0.013265 -0.034813
v -0.006485 0.000637 -0.034813
v -0.006485 0.000637 -0.050854
v 0.006485 0.000637 -0.050854
v 0.006485 0.000637 -0.034813
v 0.000027 0.013263 -0.034471
v 0.006826 0.013263 -0.034471
v 0.006826 0.013263 -0.051195
v 0.000027 0.013263 -0.051195
v 0.000027 0.013823 -0.034471
v 0.006826 0.013823 -0.034471
v 0.006826 0.013823 -0.051195
v 0.000027 0.013823 -0.051195
v 0.006826 -0.000000 -0.034471
v -0.006826 -0.000000 -0.034471
v -0.006826 -0.000000 -0.051195
v 0.006826 -0.000000 -0.051195
v 0.006826 0.013265 -0.034471
v -0.006826 0.013265 -0.034471
v -0.006826 0.013265 -0.051195
v 0.006826 0.013265 -0.051195
v 0.006485 0.013265 -0.034813
v 0.006485 0.013265 -0.050854
v -0.006485 0.013265 -0.050854
v -0.006485 0.013265 -0.034813
v 0.006485 0.000637 -0.034813
v 0.006485 0.000637 -0.050854
v -0.006485 0.000637 -0.050854
v -0.006485 0.000637 -0.034813
v -0.000027 0.013263 -0.034471
v -0.006826 0.013263 -0.034471
v -0.006826 0.013263 -0.051195
v -0.000027 0.013263 -0.051195
v -0.000027 0.013823 -0.034471
v -0.006826 0.013823 -0.034471
v -0.006826 0.013823 -0.051195
v -0.000027 0.013823 -0.051195
v -0.000683 0.012560 -0.034301
v -0.000683 0.013857 -0.034301
v 0.000683 0.013857 -0.034301
v 0.000683 0.012560 -0.034301
v -0.000683 0.012560 -0.051366
v -0.000683 0.013857 -0.051366
v 0.000683 0.013857 -0.051366
v 0.000683 0.012560 -0.051366
v -0.000683 0.013242 -0.051366
v 0.000683 0.013242 -0.051366
v -0.000683 0.013242 -0.034301
v 0.000683 0.013242 -0.034301
v -0.000683 0.012560 -0.034813
v 0.000683 0.012560 -0.034813
v -0.000683 0.013242 -0.034813
v 0.000683 0.013242 -0.034813
v -0.000683 0.013857 -0.034813
v 0.000683 0.013857 -0.034813
v 0.000683 0.012560 -0.050854
v -0.000683 0.012560 -0.050854
v -0.000683 0.013242 -0.050854
v 0.000683 0.013242 -0.050854
v 0.000683 0.013857 -0.050854
v -0.000683 0.013857 -0.050854
vn 1.0000 -0.0000 -0.0000
vn -1.0000 -0.0000 -0.0000
vn -0.0000 -0.0000 1.0000
vn -0.0000 -1.0000 -0.0000
vn -0.0000 -0.0000 -1.0000
vn -0.0000 1.0000 -0.0000
vt 0.218661 0.040564
vt 0.218661 0.181658
vt 0.040598 0.181658
vt 0.040598 0.040564
vt 0.225783 0.181658
vt 0.403846 0.181658
vt 0.403846 0.040564
vt 0.225783 0.040564
vt 0.848291 0.596120
vt 0.848291 0.737213
vt 0.670228 0.737213
vt 0.670228 0.596120
vt 0.003561 0.403846
vt 0.181624 0.403846
vt 0.181624 0.225783
vt 0.003561 0.225783
vt 0.188746 0.922399
vt 0.366809 0.922399
vt 0.366809 0.781305
vt 0.188746 0.781305
vt 0.292769 0.596154
vt 0.292769 0.774217
vt 0.151675 0.774217
vt 0.151675 0.596154
vt 0.177172 0.414603
vt 0.008013 0.414603
vt 0.003561 0.410969
vt 0.181624 0.410969
vt 0.008013 0.585397
vt 0.003561 0.589031
vt 0.181624 0.589031
vt 0.177172 0.585397
vt 0.855379 0.922399
vt 0.996473 0.922399
vt 0.996473 0.781305
vt 0.855379 0.781305
vt 0.700142 0.410935
vt 0.700142 0.552028
vt 0.522080 0.552028
vt 0.522080 0.410935
vt 0.848325 0.922399
vt 0.707231 0.922399
vt 0.707231 0.781305
vt 0.848325 0.781305
vt 0.707265 0.552028
vt 0.885328 0.552028
vt 0.885328 0.410935
vt 0.707265 0.410935
vt 0.447811 0.403846
vt 0.515152 0.403846
vt 0.515152 0.225783
vt 0.447811 0.225783
vt 0.996633 0.003086
vt 0.996633 0.033951
vt 0.929293 0.033951
vt 0.929293 0.003086
vt 0.774217 0.040123
vt 0.774217 0.070988
vt 0.596154 0.070988
vt 0.596154 0.040123
vt 0.855219 0.033951
vt 0.922559 0.033951
vt 0.922559 0.003086
vt 0.855219 0.003086
vt 0.670228 0.033951
vt 0.848291 0.033951
vt 0.848291 0.003086
vt 0.670228 0.003086
vt 0.515152 0.410969
vt 0.515152 0.589031
vt 0.447811 0.589031
vt 0.447811 0.410969
vt 0.522080 0.225750
vt 0.522080 0.366843
vt 0.700142 0.366843
vt 0.700142 0.225750
vt 0.707265 0.225750
vt 0.885328 0.225750
vt 0.885328 0.366843
vt 0.707265 0.366843
vt 0.551994 0.781305
vt 0.551994 0.922399
vt 0.373932 0.922399
vt 0.373932 0.781305
vt 0.440883 0.225783
vt 0.262821 0.225783
vt 0.262821 0.403846
vt 0.440883 0.403846
vt 0.181624 0.781305
vt 0.003561 0.781305
vt 0.003561 0.922399
vt 0.181624 0.922399
vt 0.144621 0.596154
vt 0.144621 0.774217
vt 0.003527 0.774217
vt 0.003527 0.596154
vt 0.188746 0.410969
vt 0.366809 0.410969
vt 0.362358 0.414603
vt 0.193198 0.414603
vt 0.366809 0.589031
vt 0.362358 0.585397
vt 0.193198 0.585397
vt 0.188746 0.589031
vt 0.996473 0.596120
vt 0.855379 0.596120
vt 0.855379 0.737213
vt 0.996473 0.737213
vt 0.299858 0.596120
vt 0.299858 0.737213
vt 0.477920 0.737213
vt 0.477920 0.596120
vt 0.559083 0.781305
vt 0.700176 0.781305
vt 0.700176 0.922399
vt 0.559083 0.922399
vt 0.485043 0.596120
vt 0.663105 0.596120
vt 0.663105 0.737213
vt 0.485043 0.737213
vt 0.441077 0.410969
vt 0.373737 0.410969
vt 0.373737 0.589031
vt 0.441077 0.589031
vt 0.848485 0.040123
vt 0.848485 0.070988
vt 0.781145 0.070988
vt 0.781145 0.040123
vt 0.485043 0.003086
vt 0.485043 0.033951
vt 0.663105 0.033951
vt 0.663105 0.003086
vt 0.922559 0.040123
vt 0.855219 0.040123
vt 0.855219 0.070988
vt 0.922559 0.070988
vt 0.410969 0.040123
vt 0.589031 0.040123
vt 0.589031 0.070988
vt 0.410969 0.070988
vt 0.255892 0.225783
vt 0.255892 0.403846
vt 0.188552 0.403846
vt 0.188552 0.225783
vt 0.996914 0.056368
vt 0.966049 0.056368
vt 0.966049 0.070988
vt 0.996914 0.070988
vt 0.966049 0.040123
vt 0.996914 0.040123
vt 0.929012 0.070988
vt 0.929012 0.056368
vt 0.959877 0.056368
vt 0.959877 0.070988
vt 0.959877 0.040123
vt 0.929012 0.040123
vt 0.410494 0.077160
vt 0.410494 0.108025
vt 0.441358 0.108025
vt 0.441358 0.077160
vt 0.047073 0.019331
vt 0.047073 0.003086
vt 0.040621 0.003086
vt 0.040621 0.019331
vt 0.262843 0.003086
vt 0.269295 0.003086
vt 0.269295 0.019331
vt 0.262843 0.019331
vt 0.033951 0.003584
vt 0.033951 0.010036
vt 0.003086 0.010036
vt 0.003086 0.003584
vt 0.040621 0.033951
vt 0.047073 0.033951
vt 0.269295 0.033951
vt 0.262843 0.033951
vt 0.478395 0.108025
vt 0.478395 0.077160
vt 0.447531 0.077160
vt 0.447531 0.108025
vt 0.255675 0.003086
vt 0.249223 0.003086
vt 0.249223 0.019331
vt 0.255675 0.019331
vt 0.477897 0.019331
vt 0.471446 0.019331
vt 0.471446 0.003086
vt 0.477897 0.003086
vt 0.033951 0.212186
vt 0.003086 0.212186
vt 0.003086 0.218638
vt 0.033951 0.218638
vt 0.249223 0.033951
vt 0.255675 0.033951
vt 0.471446 0.033951
vt 0.477897 0.033951
s 0
usemtl aloe_dirt.001
f 3/1/1 7/2/1 6/3/1 2/4/1
f 5/5/2 8/6/2 4/7/2 1/8/2
f 2/9/3 6/10/3 5/11/3 1/12/3
f 4/13/4 3/14/4 2/15/4 1/16/4
f 8/17/5 7/18/5 3/19/5 4/20/5
f 16/21/6 15/22/6 14/23/6 13/24/6
f 12/25/6 9/26/6 5/27/6 6/28/6
f 9/26/6 10/29/6 8/30/6 5/27/6
f 7/31/6 8/30/6 10/29/6 11/32/6
f 7/31/6 11/32/6 12/25/6 6/28/6
f 9/33/5 12/34/5 16/35/5 13/36/5
f 14/37/1 10/38/1 9/39/1 13/40/1
f 11/41/3 10/42/3 14/43/3 15/44/3
f 12/45/2 11/46/2 15/47/2 16/48/2
f 20/49/4 19/50/4 18/51/4 17/52/4
f 18/53/3 22/54/3 21/55/3 17/56/3
f 19/57/1 23/58/1 22/59/1 18/60/1
f 24/61/5 23/62/5 19/63/5 20/64/5
f 21/65/2 24/66/2 20/67/2 17/68/2
f 22/69/6 23/70/6 24/71/6 21/72/6
f 26/73/2 30/74/2 31/75/2 27/76/2
f 25/77/1 28/78/1 32/79/1 29/80/1
f 25/81/3 29/82/3 30/83/3 26/84/3
f 25/85/4 26/86/4 27/87/4 28/88/4
f 28/89/5 27/90/5 31/91/5 32/92/5
f 37/93/6 38/94/6 39/95/6 40/96/6
f 30/97/6 29/98/6 33/99/6 36/100/6
f 29/98/6 32/101/6 34/102/6 33/99/6
f 35/103/6 34/102/6 32/101/6 31/104/6
f 30/97/6 36/100/6 35/103/6 31/104/6
f 37/105/5 40/106/5 36/107/5 33/108/5
f 37/109/2 33/110/2 34/111/2 38/112/2
f 39/113/3 38/114/3 34/115/3 35/116/3
f 40/117/1 39/118/1 35/119/1 36/120/1
f 41/121/4 42/122/4 43/123/4 44/124/4
f 41/125/3 45/126/3 46/127/3 42/128/3
f 42/129/2 46/130/2 47/131/2 43/132/2
f 44/133/5 43/134/5 47/135/5 48/136/5
f 41/137/1 44/138/1 48/139/1 45/140/1
f 45/141/6 48/142/6 47/143/6 46/144/6
f 58/145/5 57/146/5 54/147/5 55/148/5
f 53/149/5 57/146/5 58/145/5 56/150/5
f 50/151/3 59/152/3 60/153/3 51/154/3
f 52/155/3 60/153/3 59/152/3 49/156/3
f 49/157/4 61/158/4 62/159/4 52/160/4
f 63/161/2 61/162/2 49/163/2 59/164/2
f 52/165/1 62/166/1 64/167/1 60/168/1
f 51/169/6 66/170/6 65/171/6 50/172/6
f 50/173/2 65/174/2 63/161/2 59/164/2
f 64/167/1 66/175/1 51/176/1 60/168/1
f 56/177/4 67/178/4 68/179/4 53/180/4
f 53/181/2 68/182/2 69/183/2 57/184/2
f 58/185/1 70/186/1 67/187/1 56/188/1
f 66/170/6 71/189/6 72/190/6 65/171/6
f 54/191/6 72/190/6 71/189/6 55/192/6
f 65/174/2 72/193/2 69/183/2 63/161/2
f 57/184/2 69/183/2 72/193/2 54/194/2
f 64/167/1 70/186/1 71/195/1 66/175/1
f 55/196/1 71/195/1 70/186/1 58/185/1
